<svg width="451" height="523" viewBox="0 0 451 523" fill="none" xmlns="http://www.w3.org/2000/svg">
<path fill-rule="evenodd" clip-rule="evenodd" d="M130 421.669C77.1864 382.372 13.3211 385.604 -20.5 295.168C-51.931 211.125 -50.7568 200.52 -54.5752 95.6999C-58.2381 -4.8387 -44.3436 -98.7814 -29.1825 -194.883C-9.75189 -318.04 -14.6995 -498.502 45.9618 -541.557C108.365 -585.848 161.481 -432.993 220.268 -371.936C259.346 -331.346 297.068 -297.345 332.225 -244.232C375.971 -178.145 442.541 -134.379 449.657 -25.3882C456.763 83.4526 385.024 144.729 364.249 246.267C338.681 371.239 370.818 552.021 315.679 629.453C262.279 704.442 191.104 467.134 130 421.669Z" fill="url(#paint0_linear_3110_840)" fill-opacity="0.4"/>
<defs>
<linearGradient id="paint0_linear_3110_840" x1="414.67" y1="-221.738" x2="-123.641" y2="155.579" gradientUnits="userSpaceOnUse">
<stop stop-color="#9EE6F7" stop-opacity="0"/>
<stop offset="1" stop-color="#9EE6F7" stop-opacity="0.46"/>
</linearGradient>
</defs>
</svg>
